<svg xmlns="http://www.w3.org/2000/svg" xmlns:xlink="http://www.w3.org/1999/xlink" width="21" height="24" viewBox="0 0 21 24">
  <defs>
    <clipPath id="clip-path">
      <rect id="Rechteck_3" data-name="Rechteck 3" width="21" height="24" transform="translate(0 0.446)" fill="#fff" stroke="#707070" stroke-width="1"/>
    </clipPath>
  </defs>
  <g id="Gruppe_maskieren_2" data-name="Gruppe maskieren 2" transform="translate(0 -0.446)" clip-path="url(#clip-path)">
    <g id="thumb_up_alt-white-18dp" transform="translate(-0.247 0.183)">
      <path id="Pfad_3" data-name="Pfad 3" d="M0,0H21.192V24.177H0Z" fill="none" opacity="0.87"/>
      <path id="Pfad_4" data-name="Pfad 4" d="M19.785,9.176H14.213l.839-4.6.026-.322a1.63,1.63,0,0,0-.389-1.068l-.936-1.058L7.944,8.763a2.115,2.115,0,0,0-.521,1.42V20.257a1.908,1.908,0,0,0,1.766,2.015h7.947a1.768,1.768,0,0,0,1.625-1.229l2.667-7.1a2.238,2.238,0,0,0,.124-.735V11.191A1.908,1.908,0,0,0,19.785,9.176Zm0,4.029-2.649,7.051H9.189V10.184l3.832-4.372-.98,5.379h7.744ZM2.125,10.184H5.657V22.272H2.125Z" transform="translate(-1.242 -1.118)" fill="#fff"/>
    </g>
  </g>
</svg>
