<svg xmlns="http://www.w3.org/2000/svg" width="22.758" height="22.631" viewBox="0 0 22.758 22.631">
  <g id="schedule-white-18dp" transform="translate(1.127) rotate(3)">
    <path id="Pfad_11" data-name="Pfad 11" d="M0,0H21.661V21.527H0Z" fill="none"/>
    <path id="Pfad_12" data-name="Pfad 12" d="M8.644,1.417A7.1,7.1,0,0,0,1.417,8.388a7.1,7.1,0,0,0,7.227,6.971,7.111,7.111,0,0,0,7.242-6.971A7.111,7.111,0,0,0,8.644,1.417Zm.007,12.548A5.684,5.684,0,0,1,2.864,8.388,5.684,5.684,0,0,1,8.651,2.811a5.684,5.684,0,0,1,5.787,5.577A5.684,5.684,0,0,1,8.651,13.965Z" transform="translate(2.18 -1.417)" fill="#fff"/>
    <path id="Pfad_13" data-name="Pfad 13" d="M9.081,4.958H7.792v5.436L12.3,13.249l.645-1.114L9.081,9.715Z" transform="translate(2.013 -2.702)" fill="#fff"/>
  </g>
</svg>
